<svg width="24" height="24" viewBox="0 0 24 24" fill="none" xmlns="http://www.w3.org/2000/svg">
<path d="M13.1999 17.4L8.5999 12.8C8.48324 12.6833 8.3999 12.5583 8.3499 12.425C8.2999 12.2917 8.2749 12.15 8.2749 12C8.2749 11.85 8.2999 11.7083 8.3499 11.575C8.3999 11.4417 8.48324 11.3167 8.5999 11.2L13.1999 6.6C13.4166 6.38333 13.6832 6.275 13.9999 6.275C14.3166 6.275 14.5832 6.38333 14.7999 6.6C15.0166 6.81667 15.1249 7.08333 15.1249 7.4C15.1249 7.71667 15.0166 7.98333 14.7999 8.2L10.9999 12L14.7999 15.8C15.0166 16.0167 15.1249 16.2833 15.1249 16.6C15.1249 16.9167 15.0166 17.1833 14.7999 17.4C14.5832 17.6167 14.3166 17.725 13.9999 17.725C13.6832 17.725 13.4166 17.6167 13.1999 17.4Z" fill="#262626"/>
</svg>
